<svg id="visual" viewBox="0 0 900 600" width="900" height="600" xmlns="http://www.w3.org/2000/svg" xmlns:xlink="http://www.w3.org/1999/xlink" version="1.1"><rect x="0" y="0" width="900" height="600" fill="#03031f"></rect><defs><linearGradient id="grad1_0" x1="33.3%" y1="0%" x2="100%" y2="100%"><stop offset="20%" stop-color="#fa3cd6" stop-opacity="1"></stop><stop offset="80%" stop-color="#fa3cd6" stop-opacity="1"></stop></linearGradient></defs><defs><linearGradient id="grad1_1" x1="33.3%" y1="0%" x2="100%" y2="100%"><stop offset="20%" stop-color="#fa3cd6" stop-opacity="1"></stop><stop offset="80%" stop-color="#ca3fc4" stop-opacity="1"></stop></linearGradient></defs><defs><linearGradient id="grad1_2" x1="33.3%" y1="0%" x2="100%" y2="100%"><stop offset="20%" stop-color="#9d3dae" stop-opacity="1"></stop><stop offset="80%" stop-color="#ca3fc4" stop-opacity="1"></stop></linearGradient></defs><defs><linearGradient id="grad1_3" x1="33.3%" y1="0%" x2="100%" y2="100%"><stop offset="20%" stop-color="#9d3dae" stop-opacity="1"></stop><stop offset="80%" stop-color="#733795" stop-opacity="1"></stop></linearGradient></defs><defs><linearGradient id="grad1_4" x1="33.3%" y1="0%" x2="100%" y2="100%"><stop offset="20%" stop-color="#4e2f79" stop-opacity="1"></stop><stop offset="80%" stop-color="#733795" stop-opacity="1"></stop></linearGradient></defs><defs><linearGradient id="grad1_5" x1="33.3%" y1="0%" x2="100%" y2="100%"><stop offset="20%" stop-color="#4e2f79" stop-opacity="1"></stop><stop offset="80%" stop-color="#2f245b" stop-opacity="1"></stop></linearGradient></defs><defs><linearGradient id="grad1_6" x1="33.3%" y1="0%" x2="100%" y2="100%"><stop offset="20%" stop-color="#16173d" stop-opacity="1"></stop><stop offset="80%" stop-color="#2f245b" stop-opacity="1"></stop></linearGradient></defs><defs><linearGradient id="grad1_7" x1="33.3%" y1="0%" x2="100%" y2="100%"><stop offset="20%" stop-color="#16173d" stop-opacity="1"></stop><stop offset="80%" stop-color="#03031f" stop-opacity="1"></stop></linearGradient></defs><defs><linearGradient id="grad2_0" x1="0%" y1="0%" x2="66.7%" y2="100%"><stop offset="20%" stop-color="#fa3cd6" stop-opacity="1"></stop><stop offset="80%" stop-color="#fa3cd6" stop-opacity="1"></stop></linearGradient></defs><defs><linearGradient id="grad2_1" x1="0%" y1="0%" x2="66.7%" y2="100%"><stop offset="20%" stop-color="#ca3fc4" stop-opacity="1"></stop><stop offset="80%" stop-color="#fa3cd6" stop-opacity="1"></stop></linearGradient></defs><defs><linearGradient id="grad2_2" x1="0%" y1="0%" x2="66.7%" y2="100%"><stop offset="20%" stop-color="#ca3fc4" stop-opacity="1"></stop><stop offset="80%" stop-color="#9d3dae" stop-opacity="1"></stop></linearGradient></defs><defs><linearGradient id="grad2_3" x1="0%" y1="0%" x2="66.7%" y2="100%"><stop offset="20%" stop-color="#733795" stop-opacity="1"></stop><stop offset="80%" stop-color="#9d3dae" stop-opacity="1"></stop></linearGradient></defs><defs><linearGradient id="grad2_4" x1="0%" y1="0%" x2="66.7%" y2="100%"><stop offset="20%" stop-color="#733795" stop-opacity="1"></stop><stop offset="80%" stop-color="#4e2f79" stop-opacity="1"></stop></linearGradient></defs><defs><linearGradient id="grad2_5" x1="0%" y1="0%" x2="66.7%" y2="100%"><stop offset="20%" stop-color="#2f245b" stop-opacity="1"></stop><stop offset="80%" stop-color="#4e2f79" stop-opacity="1"></stop></linearGradient></defs><defs><linearGradient id="grad2_6" x1="0%" y1="0%" x2="66.7%" y2="100%"><stop offset="20%" stop-color="#2f245b" stop-opacity="1"></stop><stop offset="80%" stop-color="#16173d" stop-opacity="1"></stop></linearGradient></defs><defs><linearGradient id="grad2_7" x1="0%" y1="0%" x2="66.7%" y2="100%"><stop offset="20%" stop-color="#03031f" stop-opacity="1"></stop><stop offset="80%" stop-color="#16173d" stop-opacity="1"></stop></linearGradient></defs><g transform="translate(900, 0)"><path d="M0 297.5C-32.4 296.4 -64.8 295.4 -91.9 282.9C-119.1 270.4 -140.9 246.3 -164 225.7C-187.1 205.1 -211.3 188.1 -227.3 165.2C-243.4 142.3 -251.2 113.5 -261.5 85C-271.9 56.5 -284.7 28.2 -297.5 0L0 0Z" fill="#0d102d"></path><path d="M0 260.3C-28.3 259.4 -56.7 258.5 -80.4 247.5C-104.2 236.6 -123.3 215.5 -143.5 197.5C-163.7 179.5 -184.9 164.6 -198.9 144.5C-213 124.5 -219.8 99.3 -228.8 74.4C-237.9 49.4 -249.1 24.7 -260.3 0L0 0Z" fill="#221e4c"></path><path d="M0 223.1C-24.3 222.3 -48.6 221.6 -68.9 212.2C-89.3 202.8 -105.7 184.7 -123 169.3C-140.3 153.9 -158.5 141.1 -170.5 123.9C-182.5 106.7 -188.4 85.1 -196.2 63.7C-203.9 42.4 -213.5 21.2 -223.1 0L0 0Z" fill="#3e296a"></path><path d="M0 185.9C-20.2 185.3 -40.5 184.7 -57.4 176.8C-74.4 169 -88.1 153.9 -102.5 141.1C-116.9 128.2 -132.1 117.6 -142.1 103.2C-152.1 88.9 -157 70.9 -163.5 53.1C-169.9 35.3 -177.9 17.6 -185.9 0L0 0Z" fill="#603387"></path><path d="M0 148.7C-16.2 148.2 -32.4 147.7 -46 141.4C-59.5 135.2 -70.5 123.1 -82 112.9C-93.5 102.6 -105.6 94 -113.7 82.6C-121.7 71.1 -125.6 56.7 -130.8 42.5C-135.9 28.2 -142.3 14.1 -148.7 0L0 0Z" fill="#873aa2"></path><path d="M0 111.5C-12.1 111.2 -24.3 110.8 -34.5 106.1C-44.6 101.4 -52.8 92.4 -61.5 84.6C-70.1 76.9 -79.2 70.5 -85.3 61.9C-91.3 53.3 -94.2 42.6 -98.1 31.9C-101.9 21.2 -106.7 10.6 -111.5 0L0 0Z" fill="#b33eba"></path><path d="M0 74.4C-8.1 74.1 -16.2 73.9 -23 70.7C-29.8 67.6 -35.2 61.6 -41 56.4C-46.8 51.3 -52.8 47 -56.8 41.3C-60.8 35.6 -62.8 28.4 -65.4 21.2C-68 14.1 -71.2 7.1 -74.4 0L0 0Z" fill="#e23ece"></path><path d="M0 37.2C-4 37.1 -8.1 36.9 -11.5 35.4C-14.9 33.8 -17.6 30.8 -20.5 28.2C-23.4 25.6 -26.4 23.5 -28.4 20.6C-30.4 17.8 -31.4 14.2 -32.7 10.6C-34 7.1 -35.6 3.5 -37.2 0L0 0Z" fill="#fa3cd6"></path></g></svg>