<svg id="visual" viewBox="0 0 900 600" width="900" height="600" xmlns="http://www.w3.org/2000/svg" xmlns:xlink="http://www.w3.org/1999/xlink" version="1.1"><rect x="0" y="0" width="900" height="600" fill="#03031f"></rect><defs><linearGradient id="grad1_0" x1="33.3%" y1="0%" x2="100%" y2="100%"><stop offset="20%" stop-color="#fa3cd6" stop-opacity="1"></stop><stop offset="80%" stop-color="#fa3cd6" stop-opacity="1"></stop></linearGradient></defs><defs><linearGradient id="grad1_1" x1="33.3%" y1="0%" x2="100%" y2="100%"><stop offset="20%" stop-color="#fa3cd6" stop-opacity="1"></stop><stop offset="80%" stop-color="#ca3fc4" stop-opacity="1"></stop></linearGradient></defs><defs><linearGradient id="grad1_2" x1="33.3%" y1="0%" x2="100%" y2="100%"><stop offset="20%" stop-color="#9d3dae" stop-opacity="1"></stop><stop offset="80%" stop-color="#ca3fc4" stop-opacity="1"></stop></linearGradient></defs><defs><linearGradient id="grad1_3" x1="33.3%" y1="0%" x2="100%" y2="100%"><stop offset="20%" stop-color="#9d3dae" stop-opacity="1"></stop><stop offset="80%" stop-color="#733795" stop-opacity="1"></stop></linearGradient></defs><defs><linearGradient id="grad1_4" x1="33.3%" y1="0%" x2="100%" y2="100%"><stop offset="20%" stop-color="#4e2f79" stop-opacity="1"></stop><stop offset="80%" stop-color="#733795" stop-opacity="1"></stop></linearGradient></defs><defs><linearGradient id="grad1_5" x1="33.3%" y1="0%" x2="100%" y2="100%"><stop offset="20%" stop-color="#4e2f79" stop-opacity="1"></stop><stop offset="80%" stop-color="#2f245b" stop-opacity="1"></stop></linearGradient></defs><defs><linearGradient id="grad1_6" x1="33.3%" y1="0%" x2="100%" y2="100%"><stop offset="20%" stop-color="#16173d" stop-opacity="1"></stop><stop offset="80%" stop-color="#2f245b" stop-opacity="1"></stop></linearGradient></defs><defs><linearGradient id="grad1_7" x1="33.3%" y1="0%" x2="100%" y2="100%"><stop offset="20%" stop-color="#16173d" stop-opacity="1"></stop><stop offset="80%" stop-color="#03031f" stop-opacity="1"></stop></linearGradient></defs><defs><linearGradient id="grad2_0" x1="0%" y1="0%" x2="66.7%" y2="100%"><stop offset="20%" stop-color="#fa3cd6" stop-opacity="1"></stop><stop offset="80%" stop-color="#fa3cd6" stop-opacity="1"></stop></linearGradient></defs><defs><linearGradient id="grad2_1" x1="0%" y1="0%" x2="66.7%" y2="100%"><stop offset="20%" stop-color="#ca3fc4" stop-opacity="1"></stop><stop offset="80%" stop-color="#fa3cd6" stop-opacity="1"></stop></linearGradient></defs><defs><linearGradient id="grad2_2" x1="0%" y1="0%" x2="66.7%" y2="100%"><stop offset="20%" stop-color="#ca3fc4" stop-opacity="1"></stop><stop offset="80%" stop-color="#9d3dae" stop-opacity="1"></stop></linearGradient></defs><defs><linearGradient id="grad2_3" x1="0%" y1="0%" x2="66.7%" y2="100%"><stop offset="20%" stop-color="#733795" stop-opacity="1"></stop><stop offset="80%" stop-color="#9d3dae" stop-opacity="1"></stop></linearGradient></defs><defs><linearGradient id="grad2_4" x1="0%" y1="0%" x2="66.7%" y2="100%"><stop offset="20%" stop-color="#733795" stop-opacity="1"></stop><stop offset="80%" stop-color="#4e2f79" stop-opacity="1"></stop></linearGradient></defs><defs><linearGradient id="grad2_5" x1="0%" y1="0%" x2="66.7%" y2="100%"><stop offset="20%" stop-color="#2f245b" stop-opacity="1"></stop><stop offset="80%" stop-color="#4e2f79" stop-opacity="1"></stop></linearGradient></defs><defs><linearGradient id="grad2_6" x1="0%" y1="0%" x2="66.7%" y2="100%"><stop offset="20%" stop-color="#2f245b" stop-opacity="1"></stop><stop offset="80%" stop-color="#16173d" stop-opacity="1"></stop></linearGradient></defs><defs><linearGradient id="grad2_7" x1="0%" y1="0%" x2="66.7%" y2="100%"><stop offset="20%" stop-color="#03031f" stop-opacity="1"></stop><stop offset="80%" stop-color="#16173d" stop-opacity="1"></stop></linearGradient></defs><g transform="translate(0, 600)"><path d="M0 -297.5C32.1 -296 64.3 -294.5 91.9 -282.9C119.6 -271.3 142.7 -249.5 167.5 -230.6C192.3 -211.6 218.8 -195.4 237 -172.2C255.3 -149 265.2 -118.9 273.9 -89C282.6 -59.1 290 -29.6 297.5 0L0 0Z" fill="#0d102d"></path><path d="M0 -260.3C28.1 -259 56.2 -257.7 80.4 -247.5C104.6 -237.4 124.9 -218.3 146.6 -201.7C168.3 -185.1 191.5 -171 207.4 -150.7C223.4 -130.4 232.1 -104 239.7 -77.9C247.3 -51.7 253.8 -25.9 260.3 0L0 0Z" fill="#221e4c"></path><path d="M0 -223.1C24.1 -222 48.2 -220.9 68.9 -212.2C89.7 -203.5 107 -187.2 125.6 -172.9C144.3 -158.7 164.1 -146.6 177.8 -129.2C191.4 -111.8 198.9 -89.1 205.4 -66.7C211.9 -44.3 217.5 -22.2 223.1 0L0 0Z" fill="#3e296a"></path><path d="M0 -185.9C20.1 -185 40.2 -184.1 57.4 -176.8C74.7 -169.6 89.2 -156 104.7 -144.1C120.2 -132.2 136.8 -122.1 148.2 -107.6C159.5 -93.1 165.8 -74.3 171.2 -55.6C176.6 -37 181.3 -18.5 185.9 0L0 0Z" fill="#603387"></path><path d="M0 -148.7C16.1 -148 32.1 -147.3 46 -141.4C59.8 -135.6 71.4 -124.8 83.8 -115.3C96.2 -105.8 109.4 -97.7 118.5 -86.1C127.6 -74.5 132.6 -59.4 137 -44.5C141.3 -29.6 145 -14.8 148.7 0L0 0Z" fill="#873aa2"></path><path d="M0 -111.5C12.1 -111 24.1 -110.4 34.5 -106.1C44.8 -101.7 53.5 -93.6 62.8 -86.5C72.1 -79.3 82.1 -73.3 88.9 -64.6C95.7 -55.9 99.5 -44.6 102.7 -33.4C106 -22.2 108.8 -11.1 111.5 0L0 0Z" fill="#b33eba"></path><path d="M0 -74.4C8 -74 16.1 -73.6 23 -70.7C29.9 -67.8 35.7 -62.4 41.9 -57.6C48.1 -52.9 54.7 -48.9 59.3 -43.1C63.8 -37.3 66.3 -29.7 68.5 -22.2C70.6 -14.8 72.5 -7.4 74.4 0L0 0Z" fill="#e23ece"></path><path d="M0 -37.2C4 -37 8 -36.8 11.5 -35.4C14.9 -33.9 17.8 -31.2 20.9 -28.8C24 -26.4 27.4 -24.4 29.6 -21.5C31.9 -18.6 33.2 -14.9 34.2 -11.1C35.3 -7.4 36.3 -3.7 37.2 0L0 0Z" fill="#fa3cd6"></path></g></svg>