<?xml version="1.0" encoding="UTF-8"?>
<!DOCTYPE svg PUBLIC "-//W3C//DTD SVG 1.1//EN" "http://www.w3.org/Graphics/SVG/1.1/DTD/svg11.dtd">
<svg xmlns="http://www.w3.org/2000/svg" version="1.1" width="1080px" height="1080px" style="shape-rendering:geometricPrecision; text-rendering:geometricPrecision; image-rendering:optimizeQuality; fill-rule:evenodd; clip-rule:evenodd" xmlns:xlink="http://www.w3.org/1999/xlink">
<g><path style="opacity:0.41" fill="#454144" d="M 547.5,220.5 C 547.833,221.167 548.167,221.833 548.5,222.5C 542.84,221.248 537.173,221.248 531.5,222.5C 531.611,221.883 531.944,221.383 532.5,221C 537.489,220.501 542.489,220.334 547.5,220.5 Z"/></g>
<g><path style="opacity:1" fill="#c9bdc4" d="M 548.5,222.5 C 561.762,226.3 574.095,231.967 585.5,239.5C 585.973,240.906 586.973,241.573 588.5,241.5C 588.842,242.338 589.508,242.672 590.5,242.5C 590.973,243.906 591.973,244.573 593.5,244.5C 593.842,245.338 594.508,245.672 595.5,245.5C 595.973,246.906 596.973,247.573 598.5,247.5C 618.175,259.673 638.175,271.339 658.5,282.5C 658.973,283.906 659.973,284.573 661.5,284.5C 666.47,287.989 671.803,290.989 677.5,293.5C 677.973,294.906 678.973,295.573 680.5,295.5C 696.081,304.965 712.081,313.965 728.5,322.5C 728.973,323.906 729.973,324.573 731.5,324.5C 753.381,337.115 775.381,349.782 797.5,362.5C 797.973,363.906 798.973,364.573 800.5,364.5C 805.179,368.18 809.179,372.514 812.5,377.5C 812.427,379.027 813.094,380.027 814.5,380.5C 815.338,380.842 815.672,381.508 815.5,382.5C 815.66,384.153 816.326,385.486 817.5,386.5C 817.5,386.833 817.5,387.167 817.5,387.5C 817.415,390.649 818.415,393.316 820.5,395.5C 821.265,398.096 821.599,400.763 821.5,403.5C 821.5,495.833 821.5,588.167 821.5,680.5C 820.662,680.842 820.328,681.508 820.5,682.5C 819.129,684.936 818.129,687.603 817.5,690.5C 816.833,692.5 816.167,694.5 815.5,696.5C 814.094,696.973 813.427,697.973 813.5,699.5C 813.5,699.833 813.5,700.167 813.5,700.5C 811.738,701.262 810.738,702.596 810.5,704.5C 807.5,706.833 804.833,709.5 802.5,712.5C 800.847,712.66 799.514,713.326 798.5,714.5C 796.5,716.167 794.5,717.833 792.5,719.5C 789.802,719.845 787.802,721.178 786.5,723.5C 784.216,723.975 782.216,724.975 780.5,726.5C 778.973,726.427 777.973,727.094 777.5,728.5C 775.216,728.975 773.216,729.975 771.5,731.5C 769.973,731.427 768.973,732.094 768.5,733.5C 766.216,733.975 764.216,734.975 762.5,736.5C 760.973,736.427 759.973,737.094 759.5,738.5C 758.833,738.833 758.167,739.167 757.5,739.5C 755.973,739.427 754.973,740.094 754.5,741.5C 751.22,742.807 748.22,744.473 745.5,746.5C 743.326,746.75 741.659,747.75 740.5,749.5C 737.183,751.137 733.85,752.804 730.5,754.5C 728.596,754.738 727.262,755.738 726.5,757.5C 724.833,758.167 723.167,758.833 721.5,759.5C 719.596,759.738 718.262,760.738 717.5,762.5C 715.456,763.508 713.456,764.508 711.5,765.5C 709.973,765.427 708.973,766.094 708.5,767.5C 707.508,767.328 706.842,767.662 706.5,768.5C 704.326,768.75 702.659,769.75 701.5,771.5C 699.847,771.66 698.514,772.326 697.5,773.5C 695.566,774.11 693.899,775.11 692.5,776.5C 690.938,776.733 689.605,777.4 688.5,778.5C 686.566,779.11 684.899,780.11 683.5,781.5C 681.973,781.427 680.973,782.094 680.5,783.5C 676.665,785.25 672.999,787.25 669.5,789.5C 666.787,791.172 664.12,792.838 661.5,794.5C 659.566,795.11 657.899,796.11 656.5,797.5C 654.067,797.273 652.401,798.273 651.5,800.5C 649.216,800.975 647.216,801.975 645.5,803.5C 643.973,803.427 642.973,804.094 642.5,805.5C 640.5,806.5 638.5,807.5 636.5,808.5C 634.973,808.427 633.973,809.094 633.5,810.5C 630.797,812.181 628.131,813.847 625.5,815.5C 623.973,815.427 622.973,816.094 622.5,817.5C 619.331,818.917 616.331,820.583 613.5,822.5C 611.973,822.427 610.973,823.094 610.5,824.5C 608.326,824.75 606.659,825.75 605.5,827.5C 599.995,829.749 594.995,832.749 590.5,836.5C 588.326,836.75 586.659,837.75 585.5,839.5C 583.181,839.992 581.181,840.992 579.5,842.5C 577.973,842.427 576.973,843.094 576.5,844.5C 567.115,850.022 557.115,854.189 546.5,857C 541.167,857.667 535.833,857.667 530.5,857C 526.979,855.326 523.313,854.16 519.5,853.5C 519.027,852.094 518.027,851.427 516.5,851.5C 511.685,849.928 507.352,847.595 503.5,844.5C 503.027,843.094 502.027,842.427 500.5,842.5C 500.167,842.5 499.833,842.5 499.5,842.5C 499.027,841.094 498.027,840.427 496.5,840.5C 483.801,833.153 471.134,825.82 458.5,818.5C 458.027,817.094 457.027,816.427 455.5,816.5C 436.47,804.837 417.136,793.503 397.5,782.5C 396.738,780.738 395.404,779.738 393.5,779.5C 388.055,777.612 383.055,774.945 378.5,771.5C 378.027,770.094 377.027,769.427 375.5,769.5C 363.839,763.672 352.506,757.338 341.5,750.5C 341.027,749.094 340.027,748.427 338.5,748.5C 336.216,748.025 334.216,747.025 332.5,745.5C 332.027,744.094 331.027,743.427 329.5,743.5C 328.833,743.167 328.167,742.833 327.5,742.5C 326.313,740.025 324.313,739.025 321.5,739.5C 314.935,736.057 308.602,732.39 302.5,728.5C 302.027,727.094 301.027,726.427 299.5,726.5C 294.5,723.833 289.5,721.167 284.5,718.5C 277.167,713.167 270.833,706.833 265.5,699.5C 265.573,697.973 264.906,696.973 263.5,696.5C 261.055,690.726 259.221,684.726 258,678.5C 257.5,653.836 257.333,629.169 257.5,604.5C 257.5,561.167 257.5,517.833 257.5,474.5C 257.333,449.164 257.5,423.831 258,398.5C 259.333,393.833 260.667,389.167 262,384.5C 263.03,382.654 264.196,380.987 265.5,379.5C 266.906,379.027 267.573,378.027 267.5,376.5C 267.328,375.508 267.662,374.842 268.5,374.5C 271.167,373.833 272.833,372.167 273.5,369.5C 275.519,367.81 277.519,366.144 279.5,364.5C 281.027,364.573 282.027,363.906 282.5,362.5C 287.967,358.047 293.967,354.381 300.5,351.5C 302.027,351.573 303.027,350.906 303.5,349.5C 304.833,348.833 306.167,348.167 307.5,347.5C 309.027,347.573 310.027,346.906 310.5,345.5C 316.524,342.156 322.524,338.823 328.5,335.5C 330.027,335.573 331.027,334.906 331.5,333.5C 334.005,331.989 336.672,330.655 339.5,329.5C 342.198,329.155 344.198,327.822 345.5,325.5C 350.969,322.264 356.636,319.264 362.5,316.5C 364.848,316.408 366.514,315.408 367.5,313.5C 369.635,311.929 371.968,310.596 374.5,309.5C 376.027,309.573 377.027,308.906 377.5,307.5C 379.181,305.992 381.181,304.992 383.5,304.5C 385.848,304.408 387.514,303.408 388.5,301.5C 390.837,300.164 393.171,298.83 395.5,297.5C 397.027,297.573 398.027,296.906 398.5,295.5C 402.26,293.784 405.927,291.784 409.5,289.5C 411.027,289.573 412.027,288.906 412.5,287.5C 413.514,286.326 414.847,285.66 416.5,285.5C 418.027,285.573 419.027,284.906 419.5,283.5C 419.842,282.662 420.508,282.328 421.5,282.5C 423.027,282.573 424.027,281.906 424.5,280.5C 426.027,280.573 427.027,279.906 427.5,278.5C 429.181,276.992 431.181,275.992 433.5,275.5C 435.027,275.573 436.027,274.906 436.5,273.5C 440.669,270.006 445.335,267.339 450.5,265.5C 452.027,265.573 453.027,264.906 453.5,263.5C 464.503,257.334 475.17,250.667 485.5,243.5C 486.833,243.167 488.167,242.833 489.5,242.5C 492.198,242.155 494.198,240.822 495.5,238.5C 499.336,236.416 503.003,234.083 506.5,231.5C 507.167,231.5 507.833,231.5 508.5,231.5C 510.848,231.408 512.514,230.408 513.5,228.5C 519.087,225.595 525.087,223.595 531.5,222.5C 537.173,221.248 542.84,221.248 548.5,222.5 Z"/></g>
<g><path style="opacity:0.01" fill="#181717" d="M 547.5,220.5 C 542.489,220.334 537.489,220.501 532.5,221C 531.944,221.383 531.611,221.883 531.5,222.5C 525.087,223.595 519.087,225.595 513.5,228.5C 511.326,228.75 509.659,229.75 508.5,231.5C 507.833,231.5 507.167,231.5 506.5,231.5C 506.369,230.624 506.702,229.957 507.5,229.5C 517.674,224.295 528.341,220.962 539.5,219.5C 542.355,219.503 545.022,219.836 547.5,220.5 Z"/></g>
<g><path style="opacity:0.02" fill="#201e1f" d="M 547.5,220.5 C 564.285,224.393 579.285,231.727 592.5,242.5C 591.833,242.5 591.167,242.5 590.5,242.5C 589.508,242.672 588.842,242.338 588.5,241.5C 588.027,240.094 587.027,239.427 585.5,239.5C 574.095,231.967 561.762,226.3 548.5,222.5C 548.167,221.833 547.833,221.167 547.5,220.5 Z"/></g>
<g><path style="opacity:0.671" fill="#7e767a" d="M 513.5,228.5 C 512.514,230.408 510.848,231.408 508.5,231.5C 509.659,229.75 511.326,228.75 513.5,228.5 Z"/></g>
<g><path style="opacity:0.063" fill="#141414" d="M 506.5,231.5 C 503.003,234.083 499.336,236.416 495.5,238.5C 493.147,239.34 491.147,240.674 489.5,242.5C 488.167,242.833 486.833,243.167 485.5,243.5C 491.721,238.22 498.721,234.22 506.5,231.5 Z"/></g>
<g><path style="opacity:0.8" fill="#7e767b" d="M 495.5,238.5 C 494.198,240.822 492.198,242.155 489.5,242.5C 491.147,240.674 493.147,239.34 495.5,238.5 Z"/></g>
<g><path style="opacity:0.447" fill="#595557" d="M 585.5,239.5 C 587.027,239.427 588.027,240.094 588.5,241.5C 586.973,241.573 585.973,240.906 585.5,239.5 Z"/></g>
<g><path style="opacity:0.447" fill="#5b565a" d="M 590.5,242.5 C 591.167,242.5 591.833,242.5 592.5,242.5C 592.833,243.167 593.167,243.833 593.5,244.5C 591.973,244.573 590.973,243.906 590.5,242.5 Z"/></g>
<g><path style="opacity:0.631" fill="#746d71" d="M 595.5,245.5 C 597.027,245.427 598.027,246.094 598.5,247.5C 596.973,247.573 595.973,246.906 595.5,245.5 Z"/></g>
<g><path style="opacity:0.055" fill="#181718" d="M 485.5,243.5 C 475.17,250.667 464.503,257.334 453.5,263.5C 451.973,263.427 450.973,264.094 450.5,265.5C 445.335,267.339 440.669,270.006 436.5,273.5C 434.973,273.427 433.973,274.094 433.5,275.5C 431.181,275.992 429.181,276.992 427.5,278.5C 425.973,278.427 424.973,279.094 424.5,280.5C 423.833,280.5 423.167,280.5 422.5,280.5C 422.369,279.624 422.702,278.957 423.5,278.5C 435.114,272.2 446.447,265.533 457.5,258.5C 466.867,253.443 476.201,248.443 485.5,243.5 Z"/></g>
<g><path style="opacity:0.843" fill="#847c81" d="M 453.5,263.5 C 453.027,264.906 452.027,265.573 450.5,265.5C 450.973,264.094 451.973,263.427 453.5,263.5 Z"/></g>
<g><path style="opacity:0.827" fill="#857d82" d="M 436.5,273.5 C 436.027,274.906 435.027,275.573 433.5,275.5C 433.973,274.094 434.973,273.427 436.5,273.5 Z"/></g>
<g><path style="opacity:0.02" fill="#211f20" d="M 592.5,242.5 C 607.972,250.736 623.305,259.236 638.5,268C 646.033,272.595 653.367,277.429 660.5,282.5C 659.833,282.5 659.167,282.5 658.5,282.5C 638.175,271.339 618.175,259.673 598.5,247.5C 598.027,246.094 597.027,245.427 595.5,245.5C 594.508,245.672 593.842,245.338 593.5,244.5C 593.167,243.833 592.833,243.167 592.5,242.5 Z"/></g>
<g><path style="opacity:0.525" fill="#595356" d="M 427.5,278.5 C 427.027,279.906 426.027,280.573 424.5,280.5C 424.973,279.094 425.973,278.427 427.5,278.5 Z"/></g>
<g><path style="opacity:0.816" fill="#7a7478" d="M 422.5,280.5 C 423.167,280.5 423.833,280.5 424.5,280.5C 424.027,281.906 423.027,282.573 421.5,282.5C 421.833,281.833 422.167,281.167 422.5,280.5 Z"/></g>
<g><path style="opacity:0.475" fill="#605a5e" d="M 658.5,282.5 C 659.167,282.5 659.833,282.5 660.5,282.5C 660.833,283.167 661.167,283.833 661.5,284.5C 659.973,284.573 658.973,283.906 658.5,282.5 Z"/></g>
<g><path style="opacity:0.847" fill="#867e82" d="M 419.5,283.5 C 419.027,284.906 418.027,285.573 416.5,285.5C 416.973,284.094 417.973,283.427 419.5,283.5 Z"/></g>
<g><path style="opacity:0.075" fill="#242123" d="M 660.5,282.5 C 667.365,285.426 673.698,289.093 679.5,293.5C 678.833,293.5 678.167,293.5 677.5,293.5C 671.803,290.989 666.47,287.989 661.5,284.5C 661.167,283.833 660.833,283.167 660.5,282.5 Z"/></g>
<g><path style="opacity:0.051" fill="#151515" d="M 422.5,280.5 C 422.167,281.167 421.833,281.833 421.5,282.5C 420.508,282.328 419.842,282.662 419.5,283.5C 417.973,283.427 416.973,284.094 416.5,285.5C 414.847,285.66 413.514,286.326 412.5,287.5C 410.973,287.427 409.973,288.094 409.5,289.5C 405.927,291.784 402.26,293.784 398.5,295.5C 396.973,295.427 395.973,296.094 395.5,297.5C 393.171,298.83 390.837,300.164 388.5,301.5C 386.326,301.75 384.659,302.75 383.5,304.5C 381.181,304.992 379.181,305.992 377.5,307.5C 375.973,307.427 374.973,308.094 374.5,309.5C 371.968,310.596 369.635,311.929 367.5,313.5C 365.326,313.75 363.659,314.75 362.5,316.5C 356.636,319.264 350.969,322.264 345.5,325.5C 343.147,326.34 341.147,327.674 339.5,329.5C 336.672,330.655 334.005,331.989 331.5,333.5C 329.973,333.427 328.973,334.094 328.5,335.5C 322.524,338.823 316.524,342.156 310.5,345.5C 308.973,345.427 307.973,346.094 307.5,347.5C 306.167,348.167 304.833,348.833 303.5,349.5C 302.833,349.5 302.167,349.5 301.5,349.5C 341.337,325.745 381.671,302.745 422.5,280.5 Z"/></g>
<g><path style="opacity:0.631" fill="#6c666a" d="M 412.5,287.5 C 412.027,288.906 411.027,289.573 409.5,289.5C 409.973,288.094 410.973,287.427 412.5,287.5 Z"/></g>
<g><path style="opacity:0.51" fill="#625c60" d="M 677.5,293.5 C 678.167,293.5 678.833,293.5 679.5,293.5C 679.833,294.167 680.167,294.833 680.5,295.5C 678.973,295.573 677.973,294.906 677.5,293.5 Z"/></g>
<g><path style="opacity:0.788" fill="#7f767b" d="M 398.5,295.5 C 398.027,296.906 397.027,297.573 395.5,297.5C 395.973,296.094 396.973,295.427 398.5,295.5 Z"/></g>
<g><path style="opacity:0.859" fill="#8e858b" d="M 388.5,301.5 C 387.514,303.408 385.848,304.408 383.5,304.5C 384.659,302.75 386.326,301.75 388.5,301.5 Z"/></g>
<g><path style="opacity:0.588" fill="#615b5e" d="M 377.5,307.5 C 377.027,308.906 376.027,309.573 374.5,309.5C 374.973,308.094 375.973,307.427 377.5,307.5 Z"/></g>
<g><path style="opacity:0.871" fill="#999095" d="M 367.5,313.5 C 366.514,315.408 364.848,316.408 362.5,316.5C 363.659,314.75 365.326,313.75 367.5,313.5 Z"/></g>
<g><path style="opacity:0.016" fill="#211f20" d="M 679.5,293.5 C 687.987,298.244 696.654,302.744 705.5,307C 713.985,311.998 722.319,317.165 730.5,322.5C 729.833,322.5 729.167,322.5 728.5,322.5C 712.081,313.965 696.081,304.965 680.5,295.5C 680.167,294.833 679.833,294.167 679.5,293.5 Z"/></g>
<g><path style="opacity:0.478" fill="#5b575a" d="M 728.5,322.5 C 729.167,322.5 729.833,322.5 730.5,322.5C 730.833,323.167 731.167,323.833 731.5,324.5C 729.973,324.573 728.973,323.906 728.5,322.5 Z"/></g>
<g><path style="opacity:0.796" fill="#7f777b" d="M 345.5,325.5 C 344.198,327.822 342.198,329.155 339.5,329.5C 341.147,327.674 343.147,326.34 345.5,325.5 Z"/></g>
<g><path style="opacity:0.078" fill="#201f20" d="M 730.5,322.5 C 754.276,334.888 777.61,348.055 800.5,362C 804.034,365.869 807.867,369.369 812,372.5C 813.765,375.032 815.265,377.699 816.5,380.5C 816.5,381.167 816.5,381.833 816.5,382.5C 816.167,382.5 815.833,382.5 815.5,382.5C 815.672,381.508 815.338,380.842 814.5,380.5C 814.573,378.973 813.906,377.973 812.5,377.5C 809.179,372.514 805.179,368.18 800.5,364.5C 800.027,363.094 799.027,362.427 797.5,362.5C 775.381,349.782 753.381,337.115 731.5,324.5C 731.167,323.833 730.833,323.167 730.5,322.5 Z"/></g>
<g><path style="opacity:0.773" fill="#787175" d="M 331.5,333.5 C 331.027,334.906 330.027,335.573 328.5,335.5C 328.973,334.094 329.973,333.427 331.5,333.5 Z"/></g>
<g><path style="opacity:0.624" fill="#6e676b" d="M 310.5,345.5 C 310.027,346.906 309.027,347.573 307.5,347.5C 307.973,346.094 308.973,345.427 310.5,345.5 Z"/></g>
<g><path style="opacity:0.824" fill="#827a7f" d="M 301.5,349.5 C 302.167,349.5 302.833,349.5 303.5,349.5C 303.027,350.906 302.027,351.573 300.5,351.5C 300.833,350.833 301.167,350.167 301.5,349.5 Z"/></g>
<g><path style="opacity:0.753" fill="#7a7376" d="M 282.5,362.5 C 282.027,363.906 281.027,364.573 279.5,364.5C 279.973,363.094 280.973,362.427 282.5,362.5 Z"/></g>
<g><path style="opacity:0.369" fill="#444042" d="M 797.5,362.5 C 799.027,362.427 800.027,363.094 800.5,364.5C 798.973,364.573 797.973,363.906 797.5,362.5 Z"/></g>
<g><path style="opacity:0.145" fill="#211f20" d="M 301.5,349.5 C 301.167,350.167 300.833,350.833 300.5,351.5C 293.967,354.381 287.967,358.047 282.5,362.5C 280.973,362.427 279.973,363.094 279.5,364.5C 277.519,366.144 275.519,367.81 273.5,369.5C 271.5,370.833 269.833,372.5 268.5,374.5C 267.662,374.842 267.328,375.508 267.5,376.5C 266.094,376.973 265.427,377.973 265.5,379.5C 264.196,380.987 263.03,382.654 262,384.5C 260.667,389.167 259.333,393.833 258,398.5C 257.5,423.831 257.333,449.164 257.5,474.5C 256.502,451.339 256.169,428.006 256.5,404.5C 256.927,387.813 263.594,374.313 276.5,364C 284.233,358.133 292.567,353.3 301.5,349.5 Z"/></g>
<g><path style="opacity:0.816" fill="#847c80" d="M 273.5,369.5 C 272.833,372.167 271.167,373.833 268.5,374.5C 269.833,372.5 271.5,370.833 273.5,369.5 Z"/></g>
<g><path style="opacity:0.69" fill="#857c82" d="M 267.5,376.5 C 267.573,378.027 266.906,379.027 265.5,379.5C 265.427,377.973 266.094,376.973 267.5,376.5 Z"/></g>
<g><path style="opacity:0.718" fill="#7f787c" d="M 812.5,377.5 C 813.906,377.973 814.573,378.973 814.5,380.5C 813.094,380.027 812.427,379.027 812.5,377.5 Z"/></g>
<g><path style="opacity:0.051" fill="#000000" d="M 816.5,380.5 C 869.132,432.632 921.632,484.965 974,537.5C 981.082,552.144 984.582,567.644 984.5,584C 983.247,622.815 982.58,661.649 982.5,700.5C 982.583,739.518 983.25,778.518 984.5,817.5C 984.713,833.731 981.213,849.064 974,863.5C 971.203,867.299 968.036,870.799 964.5,874C 926.128,897.455 887.128,919.788 847.5,941C 809.688,964.042 771.688,986.708 733.5,1009C 727.282,1011.94 720.949,1014.61 714.5,1017C 703.279,1019.47 692.279,1018.8 681.5,1015C 643.576,994.371 606.243,972.704 569.5,950C 526.107,926.133 483.107,901.467 440.5,876C 387.326,823.993 334.66,771.493 282.5,718.5C 283.167,718.5 283.833,718.5 284.5,718.5C 289.5,721.167 294.5,723.833 299.5,726.5C 299.973,727.906 300.973,728.573 302.5,728.5C 308.602,732.39 314.935,736.057 321.5,739.5C 323.456,740.492 325.456,741.492 327.5,742.5C 328.167,742.833 328.833,743.167 329.5,743.5C 329.973,744.906 330.973,745.573 332.5,745.5C 334.216,747.025 336.216,748.025 338.5,748.5C 338.973,749.906 339.973,750.573 341.5,750.5C 352.506,757.338 363.839,763.672 375.5,769.5C 375.973,770.906 376.973,771.573 378.5,771.5C 383.055,774.945 388.055,777.612 393.5,779.5C 394.262,781.262 395.596,782.262 397.5,782.5C 417.136,793.503 436.47,804.837 455.5,816.5C 455.973,817.906 456.973,818.573 458.5,818.5C 471.134,825.82 483.801,833.153 496.5,840.5C 496.973,841.906 497.973,842.573 499.5,842.5C 499.833,842.5 500.167,842.5 500.5,842.5C 500.973,843.906 501.973,844.573 503.5,844.5C 507.352,847.595 511.685,849.928 516.5,851.5C 516.973,852.906 517.973,853.573 519.5,853.5C 523.313,854.16 526.979,855.326 530.5,857C 535.833,857.667 541.167,857.667 546.5,857C 557.115,854.189 567.115,850.022 576.5,844.5C 578.027,844.573 579.027,843.906 579.5,842.5C 581.181,840.992 583.181,839.992 585.5,839.5C 587.848,839.408 589.514,838.408 590.5,836.5C 594.995,832.749 599.995,829.749 605.5,827.5C 607.848,827.408 609.514,826.408 610.5,824.5C 612.027,824.573 613.027,823.906 613.5,822.5C 616.331,820.583 619.331,818.917 622.5,817.5C 624.027,817.573 625.027,816.906 625.5,815.5C 628.131,813.847 630.797,812.181 633.5,810.5C 635.179,810.715 636.179,810.048 636.5,808.5C 638.5,807.5 640.5,806.5 642.5,805.5C 644.027,805.573 645.027,804.906 645.5,803.5C 647.216,801.975 649.216,800.975 651.5,800.5C 653.434,799.89 655.101,798.89 656.5,797.5C 657.899,796.11 659.566,795.11 661.5,794.5C 665.13,794.299 667.797,792.632 669.5,789.5C 672.999,787.25 676.665,785.25 680.5,783.5C 682.027,783.573 683.027,782.906 683.5,781.5C 685.989,781.759 687.656,780.759 688.5,778.5C 689.605,777.4 690.938,776.733 692.5,776.5C 694.989,776.759 696.656,775.759 697.5,773.5C 698.514,772.326 699.847,771.66 701.5,771.5C 703.848,771.408 705.514,770.408 706.5,768.5C 706.842,767.662 707.508,767.328 708.5,767.5C 710.027,767.573 711.027,766.906 711.5,765.5C 713.456,764.508 715.456,763.508 717.5,762.5C 719.404,762.262 720.738,761.262 721.5,759.5C 723.167,758.833 724.833,758.167 726.5,757.5C 728.404,757.262 729.738,756.262 730.5,754.5C 733.85,752.804 737.183,751.137 740.5,749.5C 742.848,749.408 744.514,748.408 745.5,746.5C 749.299,745.985 752.299,744.319 754.5,741.5C 756.027,741.573 757.027,740.906 757.5,739.5C 758.167,739.167 758.833,738.833 759.5,738.5C 761.027,738.573 762.027,737.906 762.5,736.5C 764.216,734.975 766.216,733.975 768.5,733.5C 770.027,733.573 771.027,732.906 771.5,731.5C 773.216,729.975 775.216,728.975 777.5,728.5C 779.027,728.573 780.027,727.906 780.5,726.5C 782.216,724.975 784.216,723.975 786.5,723.5C 788.966,722.702 790.966,721.369 792.5,719.5C 794.5,717.833 796.5,716.167 798.5,714.5C 800.38,714.771 801.713,714.104 802.5,712.5C 804.833,709.5 807.5,706.833 810.5,704.5C 812.262,703.738 813.262,702.404 813.5,700.5C 813.5,700.167 813.5,699.833 813.5,699.5C 814.906,699.027 815.573,698.027 815.5,696.5C 816.167,694.5 816.833,692.5 817.5,690.5C 819.982,688.497 820.982,685.831 820.5,682.5C 820.328,681.508 820.662,680.842 821.5,680.5C 822.309,678.708 822.809,676.708 823,674.5C 822.966,584.002 822.466,493.669 821.5,403.5C 821.599,400.763 821.265,398.096 820.5,395.5C 820.585,392.351 819.585,389.684 817.5,387.5C 817.5,387.167 817.5,386.833 817.5,386.5C 817.567,385.041 817.234,383.708 816.5,382.5C 816.5,381.833 816.5,381.167 816.5,380.5 Z"/></g>
<g><path style="opacity:0.557" fill="#70696d" d="M 815.5,382.5 C 815.833,382.5 816.167,382.5 816.5,382.5C 817.234,383.708 817.567,385.041 817.5,386.5C 816.326,385.486 815.66,384.153 815.5,382.5 Z"/></g>
<g><path style="opacity:0.851" fill="#8b8287" d="M 817.5,387.5 C 819.585,389.684 820.585,392.351 820.5,395.5C 818.415,393.316 817.415,390.649 817.5,387.5 Z"/></g>
<g><path style="opacity:0.063" fill="#111111" d="M 256.5,404.5 C 256.169,428.006 256.502,451.339 257.5,474.5C 257.5,517.833 257.5,561.167 257.5,604.5C 256.502,627.327 256.169,650.327 256.5,673.5C 256.5,583.833 256.5,494.167 256.5,404.5 Z"/></g>
<g><path style="opacity:0.157" fill="#373335" d="M 821.5,403.5 C 822.466,493.669 822.966,584.002 823,674.5C 822.809,676.708 822.309,678.708 821.5,680.5C 821.5,588.167 821.5,495.833 821.5,403.5 Z"/></g>
<g><path style="opacity:0.349" fill="#656063" d="M 820.5,682.5 C 820.982,685.831 819.982,688.497 817.5,690.5C 818.129,687.603 819.129,684.936 820.5,682.5 Z"/></g>
<g><path style="opacity:0.094" fill="#2b282a" d="M 257.5,604.5 C 257.333,629.169 257.5,653.836 258,678.5C 259.221,684.726 261.055,690.726 263.5,696.5C 263.427,698.027 264.094,699.027 265.5,699.5C 270.833,706.833 277.167,713.167 284.5,718.5C 283.833,718.5 283.167,718.5 282.5,718.5C 271.476,711.32 263.643,701.653 259,689.5C 257.202,684.311 256.369,678.978 256.5,673.5C 256.169,650.327 256.502,627.327 257.5,604.5 Z"/></g>
<g><path style="opacity:0.494" fill="#5c575a" d="M 263.5,696.5 C 264.906,696.973 265.573,697.973 265.5,699.5C 264.094,699.027 263.427,698.027 263.5,696.5 Z"/></g>
<g><path style="opacity:0.663" fill="#797276" d="M 815.5,696.5 C 815.573,698.027 814.906,699.027 813.5,699.5C 813.427,697.973 814.094,696.973 815.5,696.5 Z"/></g>
<g><path style="opacity:0.251" fill="#504a4e" d="M 813.5,700.5 C 813.262,702.404 812.262,703.738 810.5,704.5C 810.738,702.596 811.738,701.262 813.5,700.5 Z"/></g>
<g><path style="opacity:0.6" fill="#6b6468" d="M 802.5,712.5 C 801.713,714.104 800.38,714.771 798.5,714.5C 799.514,713.326 800.847,712.66 802.5,712.5 Z"/></g>
<g><path style="opacity:0.212" fill="#332e30" d="M 792.5,719.5 C 790.966,721.369 788.966,722.702 786.5,723.5C 787.802,721.178 789.802,719.845 792.5,719.5 Z"/></g>
<g><path style="opacity:0.792" fill="#7e767b" d="M 299.5,726.5 C 301.027,726.427 302.027,727.094 302.5,728.5C 300.973,728.573 299.973,727.906 299.5,726.5 Z"/></g>
<g><path style="opacity:0.263" fill="#3f3d3e" d="M 780.5,726.5 C 780.027,727.906 779.027,728.573 777.5,728.5C 777.973,727.094 778.973,726.427 780.5,726.5 Z"/></g>
<g><path style="opacity:0.255" fill="#434041" d="M 771.5,731.5 C 771.027,732.906 770.027,733.573 768.5,733.5C 768.973,732.094 769.973,731.427 771.5,731.5 Z"/></g>
<g><path style="opacity:0.329" fill="#544e51" d="M 762.5,736.5 C 762.027,737.906 761.027,738.573 759.5,738.5C 759.973,737.094 760.973,736.427 762.5,736.5 Z"/></g>
<g><path style="opacity:0.863" fill="#948b90" d="M 321.5,739.5 C 324.313,739.025 326.313,740.025 327.5,742.5C 325.456,741.492 323.456,740.492 321.5,739.5 Z"/></g>
<g><path style="opacity:0.243" fill="#433f41" d="M 757.5,739.5 C 757.027,740.906 756.027,741.573 754.5,741.5C 754.973,740.094 755.973,739.427 757.5,739.5 Z"/></g>
<g><path style="opacity:0.6" fill="#726b70" d="M 329.5,743.5 C 331.027,743.427 332.027,744.094 332.5,745.5C 330.973,745.573 329.973,744.906 329.5,743.5 Z"/></g>
<g><path style="opacity:0.11" fill="#292728" d="M 754.5,741.5 C 752.299,744.319 749.299,745.985 745.5,746.5C 748.22,744.473 751.22,742.807 754.5,741.5 Z"/></g>
<g><path style="opacity:0.114" fill="#343133" d="M 745.5,746.5 C 744.514,748.408 742.848,749.408 740.5,749.5C 741.659,747.75 743.326,746.75 745.5,746.5 Z"/></g>
<g><path style="opacity:0.698" fill="#81797f" d="M 338.5,748.5 C 340.027,748.427 341.027,749.094 341.5,750.5C 339.973,750.573 338.973,749.906 338.5,748.5 Z"/></g>
<g><path style="opacity:0.294" fill="#474345" d="M 730.5,754.5 C 729.738,756.262 728.404,757.262 726.5,757.5C 727.262,755.738 728.596,754.738 730.5,754.5 Z"/></g>
<g><path style="opacity:0.286" fill="#444142" d="M 721.5,759.5 C 720.738,761.262 719.404,762.262 717.5,762.5C 718.262,760.738 719.596,759.738 721.5,759.5 Z"/></g>
<g><path style="opacity:0.271" fill="#433e41" d="M 711.5,765.5 C 711.027,766.906 710.027,767.573 708.5,767.5C 708.973,766.094 709.973,765.427 711.5,765.5 Z"/></g>
<g><path style="opacity:0.659" fill="#746d72" d="M 375.5,769.5 C 377.027,769.427 378.027,770.094 378.5,771.5C 376.973,771.573 375.973,770.906 375.5,769.5 Z"/></g>
<g><path style="opacity:0.259" fill="#383437" d="M 706.5,768.5 C 705.514,770.408 703.848,771.408 701.5,771.5C 702.659,769.75 704.326,768.75 706.5,768.5 Z"/></g>
<g><path style="opacity:0.11" fill="#323031" d="M 697.5,773.5 C 696.656,775.759 694.989,776.759 692.5,776.5C 693.899,775.11 695.566,774.11 697.5,773.5 Z"/></g>
<g><path style="opacity:0.831" fill="#847b80" d="M 393.5,779.5 C 395.404,779.738 396.738,780.738 397.5,782.5C 395.596,782.262 394.262,781.262 393.5,779.5 Z"/></g>
<g><path style="opacity:0.11" fill="#312f30" d="M 688.5,778.5 C 687.656,780.759 685.989,781.759 683.5,781.5C 684.899,780.11 686.566,779.11 688.5,778.5 Z"/></g>
<g><path style="opacity:0.239" fill="#423d40" d="M 683.5,781.5 C 683.027,782.906 682.027,783.573 680.5,783.5C 680.973,782.094 681.973,781.427 683.5,781.5 Z"/></g>
<g><path style="opacity:0.118" fill="#2f2d2d" d="M 669.5,789.5 C 667.797,792.632 665.13,794.299 661.5,794.5C 664.12,792.838 666.787,791.172 669.5,789.5 Z"/></g>
<g><path style="opacity:0.282" fill="#454143" d="M 656.5,797.5 C 655.101,798.89 653.434,799.89 651.5,800.5C 652.401,798.273 654.067,797.273 656.5,797.5 Z"/></g>
<g><path style="opacity:0.357" fill="#565154" d="M 645.5,803.5 C 645.027,804.906 644.027,805.573 642.5,805.5C 642.973,804.094 643.973,803.427 645.5,803.5 Z"/></g>
<g><path style="opacity:0.451" fill="#686266" d="M 636.5,808.5 C 636.179,810.048 635.179,810.715 633.5,810.5C 633.973,809.094 634.973,808.427 636.5,808.5 Z"/></g>
<g><path style="opacity:0.275" fill="#474446" d="M 625.5,815.5 C 625.027,816.906 624.027,817.573 622.5,817.5C 622.973,816.094 623.973,815.427 625.5,815.5 Z"/></g>
<g><path style="opacity:0.478" fill="#5e575c" d="M 455.5,816.5 C 457.027,816.427 458.027,817.094 458.5,818.5C 456.973,818.573 455.973,817.906 455.5,816.5 Z"/></g>
<g><path style="opacity:0.322" fill="#565153" d="M 613.5,822.5 C 613.027,823.906 612.027,824.573 610.5,824.5C 610.973,823.094 611.973,822.427 613.5,822.5 Z"/></g>
<g><path style="opacity:0.247" fill="#3a3638" d="M 610.5,824.5 C 609.514,826.408 607.848,827.408 605.5,827.5C 606.659,825.75 608.326,824.75 610.5,824.5 Z"/></g>
<g><path style="opacity:0.188" fill="#2e292c" d="M 590.5,836.5 C 589.514,838.408 587.848,839.408 585.5,839.5C 586.659,837.75 588.326,836.75 590.5,836.5 Z"/></g>
<g><path style="opacity:0.514" fill="#615b5f" d="M 496.5,840.5 C 498.027,840.427 499.027,841.094 499.5,842.5C 497.973,842.573 496.973,841.906 496.5,840.5 Z"/></g>
<g><path style="opacity:0.851" fill="#867e82" d="M 500.5,842.5 C 502.027,842.427 503.027,843.094 503.5,844.5C 501.973,844.573 500.973,843.906 500.5,842.5 Z"/></g>
<g><path style="opacity:0.247" fill="#464244" d="M 579.5,842.5 C 579.027,843.906 578.027,844.573 576.5,844.5C 576.973,843.094 577.973,842.427 579.5,842.5 Z"/></g>
<g><path style="opacity:0.337" fill="#443f41" d="M 516.5,851.5 C 518.027,851.427 519.027,852.094 519.5,853.5C 517.973,853.573 516.973,852.906 516.5,851.5 Z"/></g>
</svg>