<?xml version="1.0" encoding="UTF-8"?>
<!DOCTYPE svg PUBLIC "-//W3C//DTD SVG 1.1//EN" "http://www.w3.org/Graphics/SVG/1.1/DTD/svg11.dtd">
<svg xmlns="http://www.w3.org/2000/svg" version="1.1" width="1080px" height="1080px" style="shape-rendering:geometricPrecision; text-rendering:geometricPrecision; image-rendering:optimizeQuality; fill-rule:evenodd; clip-rule:evenodd" xmlns:xlink="http://www.w3.org/1999/xlink">
<g><path style="opacity:1" fill="#1f1f32" d="M 815.5,381.5 C 817.644,386.751 819.477,392.085 821,397.5C 821.5,491.499 821.667,585.499 821.5,679.5C 820.21,682.642 819.21,685.975 818.5,689.5C 817.227,691.713 816.227,694.046 815.5,696.5C 814.094,696.973 813.427,697.973 813.5,699.5C 807.647,707.851 800.314,714.684 791.5,720C 718.405,760.893 645.738,802.893 573.5,846C 566.184,850.159 558.517,853.492 550.5,856C 544.175,856.5 537.842,856.666 531.5,856.5C 529.485,855.076 527.152,854.41 524.5,854.5C 517.284,851.894 510.284,848.727 503.5,845C 437.253,805.043 370.253,766.376 302.5,729C 296.266,725.392 290.266,721.559 284.5,717.5C 269.157,708.173 260.324,694.506 258,676.5C 257.5,636.501 257.333,596.501 257.5,556.5C 257.5,505.833 257.5,455.167 257.5,404.5C 258.571,390.268 264.238,378.268 274.5,368.5C 280.694,363.806 287.028,359.306 293.5,355C 361.634,317.592 428.968,278.592 495.5,238C 503.5,234 511.5,230 519.5,226C 532.833,220 546.167,220 559.5,226C 566.167,229.333 572.833,232.667 579.5,236C 646.093,276.799 713.76,315.799 782.5,353C 792.855,359.088 802.355,366.254 811,374.5C 812.524,376.898 814.024,379.231 815.5,381.5 Z"/></g>
<g><path style="opacity:0.048" fill="#040408" d="M 816.5,380.5 C 816.5,381.167 816.167,381.5 815.5,381.5C 814.024,379.231 812.524,376.898 811,374.5C 802.355,366.254 792.855,359.088 782.5,353C 713.76,315.799 646.093,276.799 579.5,236C 572.833,232.667 566.167,229.333 559.5,226C 546.167,220 532.833,220 519.5,226C 511.5,230 503.5,234 495.5,238C 428.968,278.592 361.634,317.592 293.5,355C 287.028,359.306 280.694,363.806 274.5,368.5C 264.238,378.268 258.571,390.268 257.5,404.5C 257.167,404.5 256.833,404.5 256.5,404.5C 256.927,387.813 263.594,374.313 276.5,364C 281.672,360.915 286.672,357.581 291.5,354C 364.358,313.746 436.358,272.246 507.5,229.5C 517.674,224.295 528.341,220.962 539.5,219.5C 551.059,220.809 562.059,224.142 572.5,229.5C 638.531,269.868 705.531,308.534 773.5,345.5C 787.33,353.158 800.163,362.158 812,372.5C 813.765,375.032 815.265,377.699 816.5,380.5 Z"/></g>
<g><path style="opacity:0.051" fill="#000000" d="M 816.5,380.5 C 869.132,432.632 921.632,484.965 974,537.5C 981.082,552.144 984.582,567.644 984.5,584C 983.247,622.815 982.58,661.649 982.5,700.5C 982.583,739.518 983.25,778.518 984.5,817.5C 984.713,833.731 981.213,849.064 974,863.5C 971.203,867.299 968.036,870.799 964.5,874C 926.128,897.455 887.128,919.788 847.5,941C 809.688,964.042 771.688,986.708 733.5,1009C 727.282,1011.94 720.949,1014.61 714.5,1017C 703.279,1019.47 692.279,1018.8 681.5,1015C 643.576,994.371 606.243,972.704 569.5,950C 526.107,926.133 483.107,901.467 440.5,876C 386.993,823.66 333.993,770.826 281.5,717.5C 282.5,717.5 283.5,717.5 284.5,717.5C 290.266,721.559 296.266,725.392 302.5,729C 370.253,766.376 437.253,805.043 503.5,845C 510.284,848.727 517.284,851.894 524.5,854.5C 526.515,855.924 528.848,856.59 531.5,856.5C 537.842,856.666 544.175,856.5 550.5,856C 558.517,853.492 566.184,850.159 573.5,846C 645.738,802.893 718.405,760.893 791.5,720C 800.314,714.684 807.647,707.851 813.5,699.5C 814.906,699.027 815.573,698.027 815.5,696.5C 816.227,694.046 817.227,691.713 818.5,689.5C 820.712,686.679 821.712,683.345 821.5,679.5C 821.667,585.499 821.5,491.499 821,397.5C 819.477,392.085 817.644,386.751 815.5,381.5C 816.167,381.5 816.5,381.167 816.5,380.5 Z"/></g>
<g><path style="opacity:0.287" fill="#040408" d="M 256.5,404.5 C 256.833,404.5 257.167,404.5 257.5,404.5C 257.5,455.167 257.5,505.833 257.5,556.5C 257.167,556.5 256.833,556.5 256.5,556.5C 255.717,505.666 255.717,455 256.5,404.5 Z"/></g>
<g><path style="opacity:0.288" fill="#05050a" d="M 256.5,556.5 C 256.833,556.5 257.167,556.5 257.5,556.5C 257.333,596.501 257.5,636.501 258,676.5C 260.324,694.506 269.157,708.173 284.5,717.5C 283.5,717.5 282.5,717.5 281.5,717.5C 268.098,709.018 259.931,697.018 257,681.5C 255.898,665.03 255.398,648.53 255.5,632C 255.773,606.831 256.106,581.665 256.5,556.5 Z"/></g>
<g><path style="opacity:0.322" fill="#0b0b12" d="M 821.5,679.5 C 821.712,683.345 820.712,686.679 818.5,689.5C 819.21,685.975 820.21,682.642 821.5,679.5 Z"/></g>
<g><path style="opacity:0.663" fill="#14141e" d="M 815.5,696.5 C 815.573,698.027 814.906,699.027 813.5,699.5C 813.427,697.973 814.094,696.973 815.5,696.5 Z"/></g>
<g><path style="opacity:0.812" fill="#141420" d="M 524.5,854.5 C 527.152,854.41 529.485,855.076 531.5,856.5C 528.848,856.59 526.515,855.924 524.5,854.5 Z"/></g>
</svg>